{
  "source": "C:\\Users\\Peter\\Desktop\\stuff\\MIUN\\quantitative_research\\video_compression\\videos\\BVI-HD\\BVI-HD_CDVL_videos\\ORIG\\SmokeGuns_1920x1080_60fps.mp4",
  "output": "C:\\Users\\Peter\\Desktop\\stuff\\MIUN\\quantitative_research\\video_compression\\compressed_videos\\BVI-HD\\h264\\3\\SmokeGuns_1920x1080_60fps_h264.mp4",
  "codec": "h264",
  "ok": "Input #0, mov,mp4,m4a,3gp,3g2,mj2, from 'C:\\Users\\Peter\\Desktop\\stuff\\MIUN\\quantitative_research\\video_compression\\videos\\BVI-HD\\BVI-HD_CDVL_videos\\ORIG\\SmokeGuns_1920x1080_60fps.mp4':\n  Metadata:\n    major_brand     : isom\n    minor_version   : 512\n    compatible_brands: isomiso2avc1mp41\n    encoder         : Lavf54.28.101\n  Duration: 00:00:05.00, start: 0.000000, bitrate: 384353 kb/s\n  Stream #0:0[0x1](und): Video: h264 (High 4:4:4 Predictive) (avc1 / 0x31637661), yuv420p(progressive), 1920x1080, 384348 kb/s, 60 fps, 60 tbr, 60 tbn (default)\n    Metadata:\n      handler_name    : VideoHandler\n      vendor_id       : [0][0][0][0]\n[out#0/mp4 @ 00000246535e9c00] Codec AVOption b:a (set bitrate (in bits/s)) has not been used for any stream. The most likely reason is either wrong type (e.g. a video option with no video streams) or that it is a private option of some decoder which was not actually used for any stream.\nStream mapping:\n  Stream #0:0 -> #0:0 (h264 (native) -> h264 (libx264))\nPress [q] to stop, [?] for help\n[libx264 @ 0000024653bc0ac0] using cpu capabilities: MMX2 SSE2Fast SSSE3 SSE4.2 AVX FMA3 BMI2 AVX2\n[libx264 @ 0000024653bc0ac0] profile High, level 5.0, 4:2:0, 8-bit\n[libx264 @ 0000024653bc0ac0] 264 - core 165 r3222 b35605a - H.264/MPEG-4 AVC codec - Copyleft 2003-2025 - http://www.videolan.org/x264.html - options: cabac=1 ref=5 deblock=1:0:0 analyse=0x3:0x113 me=hex subme=8 psy=1 psy_rd=1.00:0.00 mixed_ref=1 me_range=16 chroma_me=1 trellis=2 8x8dct=1 cqm=0 deadzone=21,11 fast_pskip=1 chroma_qp_offset=-2 threads=18 lookahead_threads=3 sliced_threads=0 nr=0 decimate=1 interlaced=0 bluray_compat=0 constrained_intra=0 bframes=3 b_pyramid=2 b_adapt=1 b_bias=0 direct=3 weightb=1 open_gop=0 weightp=2 keyint=250 keyint_min=25 scenecut=40 intra_refresh=0 rc_lookahead=50 rc=cbr mbtree=1 bitrate=3000 ratetol=1.0 qcomp=0.60 qpmin=0 qpmax=69 qpstep=4 vbv_maxrate=3000 vbv_bufsize=3000 nal_hrd=none filler=0 ip_ratio=1.40 aq=1:1.00\nOutput #0, mp4, to 'C:\\Users\\Peter\\Desktop\\stuff\\MIUN\\quantitative_research\\video_compression\\compressed_videos\\BVI-HD\\h264\\3\\SmokeGuns_1920x1080_60fps_h264.mp4':\n  Metadata:\n    major_brand     : isom\n    minor_version   : 512\n    compatible_brands: isomiso2avc1mp41\n    encoder         : Lavf62.3.100\n  Stream #0:0(und): Video: h264 (avc1 / 0x31637661), yuv420p(tv, progressive), 1920x1080, q=2-31, 3000 kb/s, 60 fps, 15360 tbn (default)\n    Metadata:\n      encoder         : Lavc62.11.100 libx264\n      handler_name    : VideoHandler\n      vendor_id       : [0][0][0][0]\n    Side data:\n      cpb: bitrate max/min/avg: 3000000/0/3000000 buffer size: 3000000 vbv_delay: N/A\nframe=    0 fps=0.0 q=0.0 size=       0KiB time=N/A bitrate=N/A speed=N/A elapsed=0:00:00.51    \nframe=    0 fps=0.0 q=0.0 size=       0KiB time=N/A bitrate=N/A speed=N/A elapsed=0:00:01.13    \nframe=    0 fps=0.0 q=0.0 size=       0KiB time=N/A bitrate=N/A speed=N/A elapsed=0:00:01.67    \nframe=   24 fps= 10 q=38.0 size=       0KiB time=00:00:00.30 bitrate=   1.3kbits/s speed=0.13x elapsed=0:00:02.30    \nframe=   50 fps= 17 q=37.0 size=       0KiB time=00:00:00.73 bitrate=   0.5kbits/s speed=0.253x elapsed=0:00:02.89    \nframe=   70 fps= 20 q=37.0 size=     256KiB time=00:00:01.10 bitrate=1906.9kbits/s speed=0.315x elapsed=0:00:03.49    \nframe=   93 fps= 23 q=37.0 size=     256KiB time=00:00:01.45 bitrate=1446.6kbits/s speed=0.351x elapsed=0:00:04.12    \nframe=  114 fps= 24 q=37.0 size=     512KiB time=00:00:01.85 bitrate=2267.4kbits/s speed=0.389x elapsed=0:00:04.75    \nframe=  135 fps= 25 q=37.0 size=     512KiB time=00:00:02.18 bitrate=1921.2kbits/s speed=0.411x elapsed=0:00:05.31    \nframe=  165 fps= 28 q=36.0 size=     768KiB time=00:00:02.65 bitrate=2374.3kbits/s speed=0.448x elapsed=0:00:05.91    \nframe=  186 fps= 29 q=37.0 size=     768KiB time=00:00:03.05 bitrate=2062.9kbits/s speed=0.471x elapsed=0:00:06.47    \nframe=  220 fps= 31 q=37.0 size=    1024KiB time=00:00:03.63 bitrate=2308.9kbits/s speed=0.515x elapsed=0:00:07.05    \nframe=  250 fps= 33 q=36.0 size=    1024KiB time=00:00:04.13 bitrate=2029.6kbits/s speed=0.545x elapsed=0:00:07.58    \nframe=  282 fps= 35 q=35.0 size=    1280KiB time=00:00:04.56 bitrate=2296.2kbits/s speed=0.564x elapsed=0:00:08.09    \n[mp4 @ 00000246535fa600] Starting second pass: moving the moov atom to the beginning of the file\n[out#0/mp4 @ 00000246535e9c00] video:1494KiB audio:0KiB subtitle:0KiB other streams:0KiB global headers:0KiB muxing overhead: 0.292211%\nframe=  300 fps= 36 q=-1.0 Lsize=    1499KiB time=00:00:04.96 bitrate=2471.7kbits/s speed=0.596x elapsed=0:00:08.33    \n[libx264 @ 0000024653bc0ac0] frame I:2     Avg QP:32.48  size: 40038\n[libx264 @ 0000024653bc0ac0] frame P:76    Avg QP:33.96  size: 12243\n[libx264 @ 0000024653bc0ac0] frame B:222   Avg QP:38.05  size:  2337\n[libx264 @ 0000024653bc0ac0] consecutive B-frames:  1.3%  0.0%  0.0% 98.7%\n[libx264 @ 0000024653bc0ac0] mb I  I16..4: 43.7% 54.3%  2.1%\n[libx264 @ 0000024653bc0ac0] mb P  I16..4:  4.7%  3.6%  0.0%  P16..4: 36.9%  3.8%  1.9%  0.0%  0.0%    skip:49.0%\n[libx264 @ 0000024653bc0ac0] mb B  I16..4:  0.1%  0.1%  0.0%  B16..8: 25.7%  0.5%  0.0%  direct: 0.1%  skip:73.5%  L0:25.4% L1:73.8% BI: 0.8%\n[libx264 @ 0000024653bc0ac0] 8x8 transform intra:45.1% inter:95.3%\n[libx264 @ 0000024653bc0ac0] direct mvs  spatial:95.5% temporal:4.5%\n[libx264 @ 0000024653bc0ac0] coded y,uvDC,uvAC intra: 21.9% 38.4% 5.2% inter: 2.5% 2.8% 0.0%\n[libx264 @ 0000024653bc0ac0] i16 v,h,dc,p: 23% 22%  9% 46%\n[libx264 @ 0000024653bc0ac0] i8 v,h,dc,ddl,ddr,vr,hd,vl,hu: 10%  8% 11% 10% 13% 13% 12% 12% 12%\n[libx264 @ 0000024653bc0ac0] i4 v,h,dc,ddl,ddr,vr,hd,vl,hu:  9%  6%  4% 12% 16% 16% 13% 12% 12%\n[libx264 @ 0000024653bc0ac0] i8c dc,h,v,p: 68% 14% 11%  7%\n[libx264 @ 0000024653bc0ac0] Weighted P-Frames: Y:0.0% UV:0.0%\n[libx264 @ 0000024653bc0ac0] ref P L0: 51.8% 20.5% 18.7%  4.0%  5.0%\n[libx264 @ 0000024653bc0ac0] ref B L0: 89.5%  7.8%  2.1%  0.7%\n[libx264 @ 0000024653bc0ac0] ref B L1: 96.4%  3.6%\n[libx264 @ 0000024653bc0ac0] kb/s:2446.87\n",
  "seconds": 8.586625576019287,
  "probe_out": {}
}